# AST/ASF file generated using VICON BodyLanguage
# -----------------------------------------------
:version 1.10
:name VICON
:units
  mass 1.0
  length 0.45
  angle deg
:documentation
   .ast/.asf automatically generated from VICON data using
   VICON BodyBuilder and BodyLanguage model FoxedUp or BRILLIANT.MOD
:root
   order TX TY TZ RX RY RZ
   axis XYZ
   position 0 0 0  
   orientation 0 0 0 
:bonedata
  begin
     id 1 
     name lhipjoint
     direction 0.610259 -0.730986 0.305356 
     length 2.50941 
     axis 0 0 0  XYZ
  end
  begin
     id 2 
     name lfemur
     direction 0.34202 -0.939693 0  
     length 7.48822  
     axis 0 0 20  XYZ
    dof rx ry rz
    limits (-160.0 20.0)
           (-70.0 70.0)
           (-60.0 70.0)
  end
  begin
     id 3 
     name ltibia
     direction 0.34202 -0.939693 0   
     length 7.60141   
     axis 0 0 20   XYZ
    dof rx
    limits (-10.0 170.0)
  end
  begin
     id 4 
     name lfoot
     direction 0.0673488 -0.185039 0.980421   
     length 2.04049   
     axis -90 7.62852e-016 20   XYZ
    dof rx rz
    limits (-45.0 90.0)
           (-70.0 20.0)
  end
  begin
     id 5 
     name ltoes
     direction 1.5356e-011 -4.21729e-011 1   
     length 1.02897   
     axis -90 7.62852e-016 20   XYZ
    dof rx
    limits (-90.0 20.0)
  end
  begin
     id 6 
     name rhipjoint
     direction -0.57612 -0.754205 0.315056   
     length 2.43216  
     axis 0 0 0  XYZ 
  end
  begin
     id 7 
     name rfemur
     direction -0.34202 -0.939693 0   
     length 7.42799   
     axis 0 0 -20   XYZ
    dof rx ry rz
    limits (-160.0 20.0)
           (-70.0 70.0)
           (-70.0 60.0)
  end
  begin
     id 8 
     name rtibia
     direction -0.34202 -0.939693 0   
     length 7.69484   
     axis 0 0 -20   XYZ
    dof rx
    limits (-10.0 170.0)
 end
 begin
     id 9 
     name rfoot
     direction -0.111837 -0.30727 0.945028   
     length 2.15769  
     axis -90 -7.62852e-016 -20   XYZ
    dof rx rz
    limits (-45.0 90.0)
           (-20.0 70.0)
  end
  begin
     id 10 
     name rtoes
     direction -1.53539e-011 -4.21878e-011 1   
     length 1.07391   
     axis -90 -7.62852e-016 -20   XYZ
    dof rx
    limits (-90.0 20.0)
  end
  begin
     id 11 
     name lowerback
     direction 0.00552624 0.990109 -0.140195   
     length 2.12403   
     axis 0 0 0   XYZ
    dof rx ry rz
    limits (-20.0 45.0)
           (-30.0 30.0)
           (-30.0 30.0)
  end
  begin
     id 12 
     name upperback
     direction 0.00361898 0.999976 -0.00584723   
     length 2.13232   
     axis 0 0 0   XYZ
    dof rx ry rz
    limits (-20.0 45.0)
           (-30.0 30.0)
           (-30.0 30.0)
  end
  begin
     id 13 
     name thorax
     direction -0.000331275 0.998253 0.0590847   
     length 2.17688   
     axis 0 0 0   XYZ
    dof rx ry rz
    limits (-20.0 45.0)
           (-30.0 30.0)
           (-30.0 30.0)
  end
  begin
     id 14 
     name lowerneck
     direction -0.0561561 0.979832 0.19177   
     length 1.64159   
     axis 0 0 0   XYZ
    dof rx ry rz
    limits (-20.0 45.0)
           (-30.0 30.0)
           (-30.0 30.0)
  end
  begin
     id 15 
     name upperneck
     direction 0.0827153 0.979385 -0.184293   
     length 1.68939   
     axis 0 0 0   XYZ
    dof rx ry rz
    limits (-20.0 45.0)
           (-30.0 30.0)
           (-30.0 30.0)
  end
  begin
     id 16
     name head
     direction 0.0278583 0.995936 -0.0856488  
     length 1.70207  
     axis 0 0 0   XYZ
    dof rx ry rz
    limits (-20.0 45.0)
           (-30.0 30.0)
           (-30.0 30.0)
  end
  begin
     id 17 
     name lclavicle
     direction 0.950993 0.301131 -0.0702275  
     length 3.41652  
     axis 0 0 0   XYZ
    dof ry rz
    limits (-20.0 10.0)
           (0.0 20.0)
  end
  begin
     id 18 
     name lhumerus
     direction 1 -4.48981e-011 -3.9662e-029   
     length 5.32955   
     axis 180 -30 -90   XYZ
    dof rx ry rz
    limits (-60.0 90.0)
           (-90.0 90.0)
           (-90.0 90.0)
  end
  begin
     id 19
     name lradius
     direction 1 -4.48925e-011 -9.0549e-027   
     length 3.69232   
     axis 180 -30 -90   XYZ
    dof rx
    limits (-10.0 170.0)
  end
  begin
     id 20
     name lwrist
     direction 1 -4.49007e-011 -1.49005e-026   
     length 1.84616   
     axis 9.0955e-015 90 90   XYZ
    dof ry
    limits (-180.0 0.0)
 end
  begin
     id 21 
     name lhand
     direction 1 -4.49016e-011 -2.98023e-026   
     length 0.536598   
     axis 1.90115e-014 90 90   XYZ
    dof rx rz
    limits (-90.0 90.0)
           (-45.0 45.0)
  end
  begin
     id 22 
     name lfingers
     direction 1 -4.48924e-011 -5.9578e-026   
     length 0.432619   
     axis 3.80223e-014 90 90   XYZ
    dof rx
    limits (0.0 90.0)
  end
  begin
     id 23
     name lthumb
     direction 0.707107 -6.34947e-011 0.707107   
     length 0.621157   
     axis -90 45 -3.84942e-014   XYZ
    dof rx rz
    limits (-45.0 45.0)
           (-45.0 45.0)
  end
  begin
     id 24 
     name rclavicle
     direction -0.955495 0.276497 -0.102848   
     length 3.36357  
     axis 0 0 0   XYZ 
    dof ry rz
    limits (-10.0 20.0)
           (-20.0 0.0)
  end
  begin
     id 25 
     name rhumerus
     direction -1 -4.48961e-011 3.30983e-027  
     length 5.23431   
     axis 180 30 90   XYZ
    dof rx ry rz
    limits (-90.0 60.0)
           (-90.0 90.0)
           (-90.0 90.0)
  end
  begin
     id 26 
     name rradius
     direction -1 -4.48965e-011 -6.63263e-027   
     length 3.55301   
     axis 180 30 90   XYZ
    dof rx
    limits (-10.0 170.0)
  end
  begin
     id 27 
     name rwrist
     direction -1 -4.48942e-011 -1.48958e-026   
     length 1.77651   
     axis 9.0955e-015 -90 -90   XYZ
    dof ry
    limits (-180.0 0.0)
  end
  begin
     id 28
     name rhand
     direction -1 -4.48977e-011 -2.97966e-026   
     length 0.772522   
     axis 1.90115e-014 -90 -90   XYZ
    dof rx rz
    limits (-90.0 90.0)
           (-45.0 45.0)
  end
  begin
     id 29
     name rfingers
     direction -1 -4.49135e-011 -5.96389e-026   
     length 0.622827   
     axis 3.80223e-014 -90 -90   XYZ
    dof rx
    limits (0.0 90.0)
  end
  begin
     id 30
     name rthumb
     direction -0.707107 -6.34969e-011 0.707107   
     length 0.894259   
     axis -90 -45 3.84942e-014   XYZ
    dof rx rz
    limits (-45.0 45.0)
           (-45.0 45.0)
  end
:hierarchy
  begin
    root lhipjoint rhipjoint lowerback
    lhipjoint lfemur
    lfemur ltibia
    ltibia lfoot
    lfoot ltoes
    rhipjoint rfemur
    rfemur rtibia
    rtibia rfoot
    rfoot rtoes
    lowerback upperback
    upperback thorax
    thorax lowerneck lclavicle rclavicle
    lowerneck upperneck
    upperneck head
    lclavicle lhumerus
    lhumerus lradius
    lradius lwrist
    lwrist lhand lthumb
    lhand lfingers
    rclavicle rhumerus
    rhumerus rradius
    rradius rwrist
    rwrist rhand rthumb
    rhand rfingers
  end

#!OML:ASF F:\VICON\USERDATA\INSTALL\rory3\rory3.ASF
:FULLY-SPECIFIED
:DEGREES
281
root 9.70349 18.2043 2.39773 0.8342 -21.4055 3.4577
lowerback 8.15144 2.61429 0.530934
upperback 0.137875 3.48358 -0.955993
thorax -4.33183 1.7033 -1.69579
lowerneck -18.3649 0.0703536 -10.1383
upperneck 39.1952 2.54987 3.30331
head 17.3205 -0.0830334 3.79271
rclavicle -1.6524e-014 5.96354e-015
rhumerus -34.1078 -11.5893 -81.3851
rradius 35.2161
rwrist 5.19816
rhand -15.6055 7.52504
rfingers 7.12502
rthumb 10.5807 -22.1886
lclavicle -1.6524e-014 5.96354e-015
lhumerus -34.352 12.135 78.9042
lradius 28.9199
lwrist -8.23583
lhand -18.9221 26.5391
lfingers 7.12502
lthumb 7.38031 56.3904
rfemur 3.52378 4.54623 24.9243
rtibia 28.1496
rfoot -4.08737 15.6177
rtoes 15.5065
lfemur -18.9795 1.52121 -25.9102
ltibia 24.5868
lfoot 11.4828 -23.578
ltoes 15.3588
282
root 9.76653 18.2073 2.29036 1.01366 -21.2096 3.35014
lowerback 8.20423 2.64687 0.685306
upperback 0.206288 3.54363 -0.904856
thorax -4.28228 1.73109 -1.73635
lowerneck -18.4549 0.0592053 -10.1349
upperneck 39.1309 2.60912 3.15716
head 17.3086 -0.0746783 3.73589
rclavicle 1.82882e-014 5.96354e-015
rhumerus -33.2875 -11.7842 -81.234
rradius 34.5308
rwrist 5.25271
rhand -15.6211 7.91287
rfingers 7.12502
rthumb 10.5657 -21.8015
lclavicle 1.82882e-014 5.96354e-015
lhumerus -34.1041 12.0053 79.2979
lradius 28.7002
lwrist -8.05227
lhand -18.7823 27.2919
lfingers 7.12502
lthumb 7.51524 57.1384
rfemur 3.15327 4.68938 25.2379
rtibia 27.9854
rfoot -4.94201 14.2341
rtoes 13.8719
lfemur -19.2783 1.28274 -25.6377
ltibia 23.7023
lfoot 16.0209 -20.6606
ltoes 26.81
283
root 9.82757 18.2139 2.18438 1.1578 -20.9745 3.24272
lowerback 8.27597 2.65422 0.813654
upperback 0.243161 3.56898 -0.828975
thorax -4.28031 1.74183 -1.73502
lowerneck -18.3885 0.0716245 -10.1443
upperneck 39.0962 2.67615 3.03628
head 17.271 -0.0621991 3.69191
rclavicle 1.04561e-013 -1.43125e-014
rhumerus -32.7223 -12.0003 -81.0139
rradius 34.1391
rwrist 5.40383
rhand -15.4181 8.11979
rfingers 7.12502
rthumb 10.7615 -21.5846
lclavicle 1.04561e-013 -1.43125e-014
lhumerus -33.9193 12.0072 79.6531
lradius 28.5268
lwrist -8.14253
lhand -23.2081 24.592
lfingers 7.12502
lthumb 3.2421 54.5471
rfemur 2.71711 4.85991 25.5393
rtibia 28.0077
rfoot -5.31654 13.4243
rtoes 14.2406
lfemur -19.4361 1.29974 -25.4125
ltibia 22.7278
lfoot 18.2986 -19.5189
ltoes 29.7265
284
root 9.88748 18.2237 2.07567 1.33463 -20.6042 3.23732
lowerback 8.4057 2.6383 0.795454
upperback 0.216407 3.54899 -0.775087
thorax -4.38607 1.73126 -1.67491
lowerneck -18.3979 0.0722432 -10.0726
upperneck 39.1288 2.72003 2.88296
head 17.2944 -0.0560584 3.61951
rclavicle -1.85864e-014 -5.56597e-015
rhumerus -32.3301 -12.3995 -80.791
rradius 33.9761
rwrist 5.50381
rhand -15.5176 8.10468
rfingers 7.12502
rthumb 10.6655 -21.6046
lclavicle -1.85864e-014 -5.56597e-015
lhumerus -33.7895 12.2116 79.9355
lradius 28.3493
lwrist -8.66798
lhand -18.001 28.381
lfingers 7.12502
lthumb 8.26936 58.1991
rfemur 2.11176 4.85181 25.6837
rtibia 28.1438
rfoot -5.85465 12.7997
rtoes 13.5939
lfemur -19.6421 1.26121 -25.2839
ltibia 21.6809
lfoot 20.3459 -18.1625
ltoes 32.405
285
root 9.94739 18.2304 1.96312 1.57518 -20.1435 3.19974
lowerback 8.52218 2.57911 0.778891
upperback 0.190014 3.47253 -0.701105
thorax -4.4869 1.69303 -1.58733
lowerneck -18.4916 0.0906314 -10.0054
upperneck 39.1676 2.79262 2.7598
head 17.3388 -0.0355119 3.56926
rclavicle -5.36719e-014 -8.34896e-015
rhumerus -31.8082 -12.7917 -80.6379
rradius 33.7076
rwrist 5.61354
rhand -15.5816 8.12695
rfingers 7.12502
rthumb 10.6038 -21.5855
lclavicle -5.36719e-014 -8.34896e-015
lhumerus -33.691 12.6278 80.1436
lradius 28.1964
lwrist -9.26748
lhand -18.4078 26.938
lfingers 7.12502
lthumb 7.87677 56.7712
rfemur 1.42033 4.81261 25.8221
rtibia 28.2992
rfoot -6.66957 12.0548
rtoes 11.4595
lfemur -19.9463 1.35656 -25.1369
ltibia 20.6181
lfoot 22.2915 -16.6773
ltoes 34.9639
286
root 10.0049 18.2336 1.85168 1.78412 -19.73 3.02146
lowerback 8.66209 2.55611 0.939209
upperback 0.176089 3.4616 -0.635142
thorax -4.57482 1.68355 -1.61516
lowerneck -18.3682 0.0765739 -10.0224
upperneck 39.09 2.76097 2.76317
head 17.2671 -0.0430346 3.56235
rclavicle -2.9122e-014 5.1684e-015
rhumerus -31.4817 -13.2072 -80.5145
rradius 33.6755
rwrist 5.72269
rhand -15.2469 8.06621
rfingers 7.12502
rthumb 10.9266 -21.6295
lclavicle -2.9122e-014 5.1684e-015
lhumerus -33.6708 12.67 80.4035
lradius 28.2398
lwrist -9.52349
lhand -18.6179 26.4297
lfingers 7.12502
lthumb 7.67398 56.2705
rfemur 0.79795 4.95079 26.1083
rtibia 28.4899
rfoot -7.17968 11.373
rtoes 10.6726
lfemur -20.1245 1.55779 -24.8185
ltibia 19.44
lfoot 24.1396 -14.5914
ltoes 37.5444
287
root 10.0595 18.2375 1.74945 1.89018 -19.3906 2.9714
lowerback 8.71359 2.56194 1.02863
upperback 0.217663 3.47763 -0.648832
thorax -4.55365 1.68978 -1.68253
lowerneck -18.2677 0.0383199 -10.0466
upperneck 39.0093 2.65812 2.86189
head 17.2024 -0.0669511 3.58749
rclavicle -7.45443e-014 1.23246e-014
rhumerus -31.243 -13.6167 -80.4451
rradius 33.7761
rwrist 5.68954
rhand -15.2585 7.73527
rfingers 7.12502
rthumb 10.9154 -21.961
lclavicle -7.45443e-014 1.23246e-014
lhumerus -33.6631 12.3432 80.7154
lradius 28.3972
lwrist -9.61614
lhand -18.5484 26.9623
lfingers 7.12502
lthumb 7.74109 56.8006
rfemur 0.244868 5.10293 26.2053
rtibia 28.6938
rfoot -7.39241 10.9843
rtoes 10.6909
lfemur -20.1437 1.69403 -24.5794
ltibia 18.1685
lfoot 25.4834 -11.8087
ltoes 39.5587
288
root 10.11 18.2485 1.65775 1.9286 -19.0919 3.12699
lowerback 8.60996 2.57004 0.88192
upperback 0.334111 3.4704 -0.693033
thorax -4.38036 1.69155 -1.63598
lowerneck -18.3598 -0.0203351 -10.0951
upperneck 38.9653 2.5542 2.97733
head 17.2072 -0.0964004 3.63026
rclavicle -3.15571e-014 1.59028e-014
rhumerus -30.9516 -13.9278 -80.4093
rradius 33.9064
rwrist 5.62963
rhand -15.6208 7.34329
rfingers 7.12502
rthumb 10.5659 -22.3711
lclavicle -3.15571e-014 1.59028e-014
lhumerus -33.6998 12.4097 80.9124
lradius 28.5854
lwrist -9.89412
lhand -18.5614 27.2106
lfingers 7.12502
lthumb 7.72846 57.0494
rfemur -0.279549 5.134 25.9937
rtibia 28.8532
rfoot -7.59601 10.8583
rtoes 10.4577
lfemur -20.0954 1.93362 -24.5775
ltibia 16.8983
lfoot 26.0767 -10.0864
ltoes 37.8134
289
root 10.1594 18.2629 1.56567 1.99344 -18.7575 3.2815
lowerback 8.53954 2.57836 0.703889
upperback 0.40115 3.46323 -0.698168
thorax -4.28156 1.69291 -1.53501
lowerneck -18.3669 -0.0893716 -10.256
upperneck 38.8988 2.43981 3.15496
head 17.1768 -0.135859 3.71629
rclavicle 1.26228e-014 -3.18055e-015
rhumerus -30.8276 -13.9708 -80.3317
rradius 34.1547
rwrist 5.43024
rhand -15.812 7.22746
rfingers 7.12502
rthumb 10.3815 -22.4963
lclavicle 1.26228e-014 -3.18055e-015
lhumerus -33.8388 12.489 81.1699
lradius 28.8426
lwrist -10.0346
lhand -18.3513 26.9791
lfingers 7.12502
lthumb 7.93124 56.8103
rfemur -0.833211 5.11142 25.7492
rtibia 28.9571
rfoot -7.70713 10.7736
rtoes 10.281
lfemur -20.0929 2.17457 -24.5835
ltibia 15.7122
lfoot 26.0279 -9.61265
ltoes 33.238
290
root 10.2096 18.2755 1.46917 2.1045 -18.3856 3.22829
lowerback 8.55564 2.57125 0.776178
upperback 0.456983 3.46131 -0.680986
thorax -4.22929 1.69146 -1.55631
lowerneck -18.3747 -0.147861 -10.3177
upperneck 38.8 2.34089 3.24158
head 17.1315 -0.165621 3.74475
rclavicle 1.6201e-014 9.93923e-015
rhumerus -30.6913 -13.8607 -80.3566
rradius 34.4695
rwrist 5.08361
rhand -15.8174 6.93922
rfingers 7.12502
rthumb 10.3763 -22.7848
lclavicle 1.6201e-014 9.93923e-015
lhumerus -33.9116 12.1508 81.5274
lradius 29.1657
lwrist -9.86161
lhand -17.704 26.6276
lfingers 7.12502
lthumb 8.55604 56.4343
rfemur -1.34741 5.10354 25.7372
rtibia 28.9892
rfoot -7.7155 10.6942
rtoes 10.0158
lfemur -20.1551 2.17716 -24.3124
ltibia 14.7372
lfoot 25.0846 -9.877
ltoes 27.6313
291
root 10.2607 18.2871 1.372 2.25639 -17.9312 3.09316
lowerback 8.60796 2.50267 0.955117
upperback 0.481391 3.38877 -0.654201
thorax -4.22655 1.65246 -1.62191
lowerneck -18.548 -0.163265 -10.255
upperneck 38.8778 2.33248 3.22074
head 17.2204 -0.166703 3.73061
rclavicle 5.09386e-014 -1.98785e-015
rhumerus -30.546 -13.7497 -80.4516
rradius 34.8101
rwrist 4.86194
rhand -15.7332 6.56708
rfingers 7.12502
rthumb 10.4575 -23.1528
lclavicle 5.09386e-014 -1.98785e-015
lhumerus -34.0934 11.8443 81.819
lradius 29.602
lwrist -9.79869
lhand -16.8364 27.4549
lfingers 7.12502
lthumb 9.39322 57.2256
rfemur -1.82224 4.95955 25.7811
rtibia 28.9333
rfoot -7.66136 10.6643
rtoes 10.2903
lfemur -20.3065 1.8423 -23.8997
ltibia 14.0753
lfoot 23.3693 -11.0595
ltoes 22.5543
292
root 10.3091 18.2992 1.27834 2.29836 -17.4995 3.05551
lowerback 8.67031 2.45239 0.982429
upperback 0.52901 3.32658 -0.609588
thorax -4.21497 1.62177 -1.58533
lowerneck -18.6516 -0.19019 -10.251
upperneck 38.9328 2.31535 3.2073
head 17.28 -0.177322 3.72591
rclavicle -4.9895e-014 1.59028e-015
rhumerus -30.5508 -13.5307 -80.492
rradius 35.1981
rwrist 4.45204
rhand -15.554 6.87086
rfingers 7.12502
rthumb 10.6303 -22.8403
lclavicle -4.9895e-014 1.59028e-015
lhumerus -34.2737 11.0568 82.3247
lradius 30.0034
lwrist -9.17972
lhand -17.142 27.4882
lfingers 7.12502
lthumb 9.0983 57.2719
rfemur -2.13092 4.82107 25.7465
rtibia 28.7695
rfoot -7.59919 10.5648
rtoes 10.4007
lfemur -20.4388 1.40957 -23.5389
ltibia 13.8065
lfoot 21.4357 -12.6723
ltoes 21.941
293
root 10.3576 18.3128 1.18888 2.21908 -17.0587 3.05254
lowerback 8.79487 2.39674 0.990742
upperback 0.636887 3.2546 -0.581885
thorax -4.17575 1.58691 -1.5556
lowerneck -18.7384 -0.230385 -10.3158
upperneck 38.8882 2.25297 3.30542
head 17.2804 -0.194749 3.77109
rclavicle 5.78463e-014 -1.59028e-015
rhumerus -30.4602 -13.1923 -80.6378
rradius 35.5712
rwrist 3.72289
rhand -15.4712 7.18934
rfingers 7.12502
rthumb 10.7103 -22.5177
lclavicle 5.78463e-014 -1.59028e-015
lhumerus -34.2986 10.073 82.8927
lradius 30.3135
lwrist -8.39541
lhand -17.9912 26.6346
lfingers 7.12502
lthumb 8.27887 56.4524
rfemur -2.26871 4.80511 25.7163
rtibia 28.5205
rfoot -7.49271 10.299
rtoes 10.2106
lfemur -20.5311 0.932456 -23.1919
ltibia 13.8574
lfoot 19.2302 -14.7151
ltoes 21.0766
294
root 10.4064 18.3324 1.10161 2.18416 -16.5611 2.99681
lowerback 8.98134 2.29344 1.07159
upperback 0.679068 3.12795 -0.544125
thorax -4.23781 1.52226 -1.55431
lowerneck -18.8884 -0.241887 -10.3388
upperneck 38.9085 2.24533 3.36358
head 17.3288 -0.193734 3.80518
rclavicle 4.62671e-014 3.57812e-015
rhumerus -30.2479 -12.881 -80.8017
rradius 35.7865
rwrist 3.29105
rhand -15.6322 7.02168
rfingers 7.12502
rthumb 10.555 -22.6933
lclavicle 4.62671e-014 3.57812e-015
lhumerus -34.5465 9.45557 83.3165
lradius 30.7902
lwrist -7.99291
lhand -18.0883 26.5937
lfingers 7.12502
lthumb 8.18513 56.4152
rfemur -2.42879 4.79073 25.7309
rtibia 28.2466
rfoot -7.31388 9.91395
rtoes 9.87466
lfemur -20.639 0.310152 -22.7563
ltibia 14.0572
lfoot 16.2785 -16.8122
ltoes 15.5384
